<svg width="63" height="77" viewBox="0 0 63 77" fill="none" xmlns="http://www.w3.org/2000/svg">
<path d="M21.9951 3.66602H40.3242C45.6121 3.66602 49.2096 3.67397 51.9033 4.03613C54.4916 4.38412 55.6909 4.99756 56.5068 5.81348C57.3226 6.62936 57.9362 7.8282 58.2842 10.416C58.6463 13.1098 58.6543 16.7072 58.6543 21.9951V70.2441L33.1514 53.7432L31.1602 52.4541L29.168 53.7432L3.66602 70.2441V21.9951C3.66602 16.7072 3.67397 13.1098 4.03613 10.416C4.38413 7.82795 4.9976 6.62936 5.81348 5.81348C6.62936 4.9976 7.82795 4.38413 10.416 4.03613C13.1098 3.67397 16.7072 3.66602 21.9951 3.66602Z" stroke="currentColor" stroke-width="7.33173"/>
</svg>
